<svg width="16" height="16" viewBox="0 0 16 16" fill="none" xmlns="http://www.w3.org/2000/svg">
<g clip-path="url(#clip0_7204_141044)">
<path d="M9.38117 2.589C9.87796 2.05075 10.1264 1.78163 10.3903 1.62465C11.0272 1.24587 11.8114 1.23409 12.4589 1.59358C12.7273 1.74256 12.9833 2.00411 13.4954 2.52721C14.0075 3.0503 14.2635 3.31185 14.4093 3.58598C14.7612 4.24744 14.7497 5.04856 14.3789 5.69917C14.2252 5.9688 13.9618 6.22255 13.4349 6.73004L7.16578 12.7682C6.16728 13.7299 5.66803 14.2108 5.04407 14.4545C4.42011 14.6982 3.73417 14.6803 2.36227 14.6444L2.17562 14.6395C1.75797 14.6286 1.54914 14.6232 1.42776 14.4854C1.30637 14.3476 1.32294 14.1349 1.35608 13.7095L1.37408 13.4785C1.46737 12.2811 1.51401 11.6824 1.74784 11.1442C1.98166 10.606 2.38499 10.169 3.19165 9.29503L9.38117 2.589Z" stroke="#7D7D80" stroke-width="1.5" stroke-linejoin="round"/>
<path d="M8.66406 2.66406L13.3307 7.33073" stroke="#7D7D80" stroke-width="1.5" stroke-linejoin="round"/>
<path d="M9.33203 14.6641L14.6654 14.6641" stroke="#7D7D80" stroke-width="1.5" stroke-linecap="round" stroke-linejoin="round"/>
</g>
<defs>
<clipPath id="clip0_7204_141044">
<rect width="16" height="16" fill="white"/>
</clipPath>
</defs>
</svg>
