<svg width="345" height="345" viewBox="0 0 345 345" fill="none" xmlns="http://www.w3.org/2000/svg">
<g clip-path="url(#clip0_9462_161474)">
<path d="M63.9187 218.83L53.6839 219.022L48.4986 219.1C46.7667 219.132 45.0265 219.126 43.2897 219.137L42.9834 219.14L42.982 218.83L42.9447 210.113L42.9434 209.767L43.2897 209.768L53.6039 209.811C57.0421 209.815 60.4797 209.889 63.918 209.925L64.1077 209.927L64.1063 210.113C64.0932 211.589 64.047 213.058 64.016 214.512L63.9187 218.83ZM63.9187 218.83L63.8207 214.431C63.7896 212.98 63.7434 211.543 63.7303 210.113L63.9187 210.301C60.4804 210.337 57.0428 210.411 53.6046 210.415L43.2904 210.458L43.6347 210.114L43.5975 218.83L43.2897 218.523C44.9913 218.535 46.6894 218.528 48.3957 218.561L53.5245 218.638L63.9187 218.83Z" fill="#EBEBEB"/>
<path d="M52.4109 229.822L42.1761 230.014L36.9907 230.092C35.2588 230.124 33.5187 230.118 31.7819 230.13L31.4756 230.132L31.4742 229.822L31.4369 221.105L31.4355 220.759L31.7819 220.76L42.096 220.804C45.5343 220.807 48.9719 220.881 52.4102 220.917L52.5999 220.919L52.5985 221.105C52.5854 222.581 52.5392 224.05 52.5081 225.504L52.4109 229.822ZM52.4109 229.822L52.3129 225.423C52.2818 223.971 52.2356 222.535 52.2225 221.105L52.4109 221.294C48.9726 221.329 45.535 221.403 42.0967 221.407L31.7826 221.45L32.1269 221.106L32.0897 229.823L31.7819 229.515C33.4835 229.527 35.1816 229.52 36.8879 229.553L42.0167 229.63L52.4109 229.822Z" fill="#EBEBEB"/>
<path d="M52.4109 41.2028L42.1761 41.3953L36.9907 41.4726C35.2588 41.505 33.5187 41.4981 31.7819 41.5105L31.4756 41.5126L31.4742 41.2028L31.4369 32.486L31.4355 32.1396L31.7819 32.141L42.096 32.1845C45.5343 32.188 48.9719 32.2618 52.4102 32.2977L52.5999 32.2997L52.5985 32.486C52.5854 33.9619 52.5392 35.4309 52.5081 36.8848L52.4109 41.2028ZM52.4109 41.2028L52.3129 36.804C52.2818 35.353 52.2356 33.9157 52.2225 32.486L52.4109 32.6744C48.9726 32.7096 45.535 32.7841 42.0967 32.7876L31.7826 32.8303L32.1269 32.486L32.0897 41.2028L31.7819 40.8951C33.4835 40.9075 35.1816 40.9006 36.8879 40.933L42.0167 41.0103L52.4109 41.2028Z" fill="#EBEBEB"/>
<path d="M313.216 41.2028L302.981 41.3953L297.795 41.4726C296.064 41.505 294.323 41.4981 292.587 41.5105L292.28 41.5126L292.279 41.2028L292.242 32.486L292.24 32.1396L292.587 32.141L302.901 32.1845C306.339 32.188 309.777 32.2618 313.215 32.2977L313.405 32.2997L313.403 32.486C313.39 33.9619 313.344 35.4309 313.313 36.8848L313.216 41.2028ZM313.216 41.2028L313.118 36.804C313.087 35.353 313.04 33.9157 313.027 32.486L313.216 32.6744C309.777 32.7096 306.339 32.7841 302.901 32.7876L292.587 32.831L292.932 32.4867L292.894 41.2035L292.587 40.8957C294.288 40.9082 295.986 40.9013 297.693 40.9337L302.821 41.011L313.216 41.2028Z" fill="#EBEBEB"/>
<path d="M301.708 52.195L291.473 52.3875L286.288 52.4648C284.556 52.4972 282.816 52.4903 281.079 52.5027L280.772 52.5048L280.771 52.195L280.734 43.4782L280.732 43.1318L281.079 43.1332L291.393 43.1767C294.831 43.1801 298.269 43.254 301.707 43.2898L301.897 43.2919L301.895 43.4782C301.882 44.9541 301.836 46.4231 301.805 47.877L301.708 52.195ZM301.708 52.195L301.61 47.7962C301.579 46.3452 301.532 44.9079 301.519 43.4782L301.708 43.6666C298.269 43.7018 294.832 43.7763 291.394 43.7797L281.08 43.8232L281.424 43.4789L281.387 52.1957L281.079 51.8879C282.78 51.9004 284.478 51.8935 286.185 51.9259L291.314 52.0032L301.708 52.195Z" fill="#EBEBEB"/>
<path d="M248.876 154.172L238.641 154.364L233.456 154.441C231.724 154.474 229.984 154.468 228.247 154.479L227.94 154.481L227.939 154.172L227.902 145.455L227.9 145.108L228.247 145.11L238.561 145.153C241.999 145.157 245.437 145.231 248.875 145.266L249.065 145.268L249.063 145.455C249.05 146.931 249.004 148.4 248.973 149.854L248.876 154.172ZM248.876 154.172L248.778 149.773C248.747 148.321 248.7 146.884 248.687 145.455L248.876 145.643C245.437 145.678 241.999 145.753 238.562 145.756L228.247 145.8L228.592 145.455L228.555 154.172L228.247 153.865C229.948 153.877 231.646 153.871 233.353 153.903L238.482 153.98L248.876 154.172Z" fill="#EBEBEB"/>
<path d="M237.368 165.164L227.133 165.356L221.948 165.434C220.216 165.466 218.476 165.459 216.739 165.471L216.433 165.474L216.431 165.164L216.394 156.447L216.393 156.101L216.739 156.102L227.053 156.145C230.491 156.149 233.929 156.223 237.367 156.259L237.557 156.261L237.556 156.447C237.542 157.923 237.496 159.392 237.465 160.846L237.368 165.164ZM237.368 165.164L237.27 160.765C237.239 159.314 237.193 157.877 237.18 156.447L237.368 156.635C233.93 156.671 230.492 156.745 227.054 156.749L216.74 156.792L217.084 156.448L217.047 165.164L216.739 164.857C218.441 164.869 220.139 164.862 221.845 164.895L226.974 164.972L237.368 165.164Z" fill="#EBEBEB"/>
<path d="M225.907 154.172L215.672 154.364L210.487 154.441C208.755 154.474 207.015 154.468 205.278 154.479L204.972 154.481L204.97 154.172L204.933 145.455L204.932 145.108L205.278 145.11L215.592 145.153C219.03 145.157 222.468 145.231 225.906 145.266L226.096 145.268L226.095 145.455C226.082 146.931 226.035 148.4 226.004 149.854L225.907 154.172ZM225.907 154.172L225.809 149.773C225.778 148.321 225.732 146.884 225.719 145.455L225.907 145.643C222.469 145.678 219.03 145.753 215.593 145.756L205.279 145.8L205.623 145.455L205.586 154.172L205.278 153.865C206.98 153.877 208.678 153.871 210.384 153.903L215.513 153.98L225.907 154.172Z" fill="#EBEBEB"/>
<path d="M313.216 229.822L302.981 230.014L297.795 230.092C296.064 230.124 294.323 230.118 292.587 230.13L292.28 230.132L292.279 229.822L292.242 221.105L292.24 220.759L292.587 220.76L302.901 220.804C306.339 220.807 309.777 220.881 313.215 220.917L313.405 220.919L313.403 221.105C313.39 222.581 313.344 224.05 313.313 225.504L313.216 229.822ZM313.216 229.822L313.118 225.423C313.087 223.971 313.04 222.535 313.027 221.105L313.216 221.294C309.777 221.329 306.34 221.403 302.901 221.407L292.587 221.45L292.932 221.106L292.894 229.823L292.587 229.515C294.288 229.527 295.986 229.52 297.693 229.553L302.821 229.63L313.216 229.822Z" fill="#EBEBEB"/>
<path d="M137.948 67.1237L127.713 67.3162L122.528 67.3935C120.796 67.4259 119.056 67.419 117.319 67.4314L117.013 67.4335L117.011 67.1237L116.974 58.4069L116.973 58.0605L117.319 58.0619L127.633 58.1054C131.071 58.1088 134.509 58.1827 137.947 58.2186L138.137 58.2206L138.136 58.4069C138.123 59.8828 138.076 61.3518 138.045 62.8057L137.948 67.1237ZM137.948 67.1237L137.85 62.7249C137.819 61.2739 137.773 59.8366 137.76 58.4069L137.948 58.5953C134.51 58.6305 131.072 58.705 127.634 58.7085L117.32 58.7519L117.664 58.4076L117.627 67.1244L117.319 66.8166C119.021 66.8291 120.719 66.8222 122.425 66.8546L127.554 66.9319L137.948 67.1237Z" fill="#EBEBEB"/>
<path d="M292.023 124.871L296.085 118.322L294.079 117.08C293.489 116.714 293.17 116.048 293.229 115.356C293.262 114.974 293.274 114.59 293.266 114.204C293.251 113.512 293.612 112.868 294.222 112.541L296.301 111.426L292.658 104.633L290.58 105.748C289.97 106.075 289.233 106.02 288.666 105.624C288.349 105.404 288.022 105.201 287.686 105.017C287.077 104.684 286.698 104.048 286.72 103.356L286.795 100.997L279.093 100.758L279.021 103.125C279.001 103.819 278.575 104.422 277.947 104.719C277.777 104.8 277.608 104.885 277.441 104.974C277.273 105.064 277.109 105.158 276.948 105.255C276.357 105.613 275.622 105.633 275.035 105.27L273.014 104.018L268.952 110.567L270.962 111.814C271.551 112.18 271.87 112.847 271.81 113.539C271.777 113.919 271.765 114.303 271.772 114.686C271.787 115.377 271.425 116.021 270.816 116.347L268.736 117.462L272.38 124.255L274.459 123.14C275.068 122.813 275.804 122.868 276.372 123.262C276.687 123.481 277.014 123.682 277.349 123.865C277.958 124.198 278.338 124.833 278.316 125.527L278.244 127.891L285.946 128.13L286.02 125.765C286.042 125.074 286.466 124.472 287.091 124.176C287.262 124.096 287.433 124.009 287.602 123.919C287.769 123.829 287.934 123.736 288.095 123.638C288.69 123.279 289.427 123.259 290.018 123.625L292.023 124.871ZM285.502 120.007C282.43 121.655 278.607 120.501 276.96 117.429C275.312 114.357 276.463 110.529 279.536 108.881C282.607 107.233 286.438 108.39 288.086 111.462C289.733 114.534 288.574 118.36 285.502 120.007Z" fill="#EBEBEB"/>
<path d="M70.0544 199.072L74.1164 192.524L72.1106 191.281C71.5206 190.915 71.2012 190.249 71.2605 189.557C71.2936 189.175 71.3054 188.791 71.2971 188.405C71.2819 187.713 71.6435 187.069 72.2534 186.742L74.3324 185.627L70.6892 178.834L68.6109 179.949C68.001 180.276 67.2647 180.221 66.6968 179.826C66.3801 179.605 66.0531 179.403 65.7171 179.218C65.1085 178.885 64.7297 178.25 64.7517 177.557L64.8263 175.198L57.1238 174.959L57.0527 177.326C57.032 178.02 56.6063 178.624 55.9784 178.92C55.808 179 55.6389 179.086 55.4719 179.176C55.3043 179.265 55.14 179.359 54.9793 179.456C54.3879 179.814 53.6531 179.835 53.0659 179.471L51.0456 178.219L46.9836 184.768L48.9928 186.015C49.5821 186.381 49.9016 187.048 49.8415 187.74C49.8084 188.121 49.796 188.504 49.8036 188.887C49.8181 189.578 49.4565 190.222 48.8472 190.548L46.7676 191.663L50.4108 198.456L52.4904 197.341C53.0997 197.014 53.8352 197.069 54.4031 197.463C54.7184 197.682 55.0448 197.884 55.3802 198.066C55.9894 198.399 56.3689 199.034 56.3475 199.728L56.2751 202.092L63.9776 202.331L64.0514 199.967C64.0728 199.275 64.4971 198.674 65.1223 198.378C65.2934 198.298 65.4638 198.211 65.6329 198.121C65.8005 198.031 65.9648 197.937 66.1262 197.84C66.721 197.481 67.4586 197.461 68.0492 197.827L70.0544 199.072ZM63.5325 194.209C60.4606 195.857 56.638 194.703 54.9903 191.631C53.3426 188.559 54.4935 184.731 57.5661 183.083C60.638 181.435 64.4688 182.592 66.1166 185.664C67.7643 188.736 66.6044 192.562 63.5325 194.209Z" fill="#EBEBEB"/>
<path d="M148.948 73.6494L146.25 68.9733L144.819 69.7999C144.398 70.0435 143.881 70.02 143.474 69.7544C143.249 69.6074 143.015 69.4729 142.775 69.3501C142.343 69.1306 142.065 68.6939 142.065 68.2095V66.5576H136.665V68.2102C136.665 68.6946 136.387 69.1313 135.955 69.3507C135.714 69.4729 135.481 69.6081 135.256 69.7551C134.849 70.02 134.331 70.0442 133.91 69.8006L132.479 68.974L129.781 73.6501L131.219 74.4774C131.64 74.7203 131.872 75.1826 131.847 75.6684C131.84 75.8002 131.837 75.9326 131.837 76.0658C131.837 76.199 131.84 76.3315 131.847 76.4633C131.872 76.9469 131.641 77.4072 131.223 77.6494L129.781 78.4822L132.479 83.1583L133.914 82.331C134.335 82.0881 134.853 82.1123 135.261 82.3779C135.485 82.5242 135.717 82.6588 135.957 82.7809C136.388 83.001 136.665 83.4371 136.665 83.9215V85.5747H142.065V83.9215C142.065 83.4371 142.343 83.001 142.774 82.7809C143.013 82.6588 143.246 82.5242 143.469 82.3779C143.877 82.1123 144.395 82.0881 144.816 82.331L146.251 83.1583L148.949 78.4822L147.514 77.6542C147.093 77.412 146.863 76.9511 146.887 76.4667C146.894 76.3342 146.897 76.2011 146.897 76.0665C146.897 75.9333 146.893 75.8009 146.887 75.6691C146.862 75.1833 147.094 74.7203 147.516 74.4774L148.948 73.6494ZM143.787 76.0658C143.787 78.5077 141.809 80.486 139.367 80.486C136.925 80.486 134.942 78.5077 134.942 76.0658C134.942 73.6239 136.925 71.6415 139.367 71.6415C141.809 71.6415 143.787 73.6239 143.787 76.0658Z" fill="#EBEBEB"/>
<path d="M108.725 157.094L104.441 140.237L70.6047 148.837L66.1328 131.242L93.1725 69.6166L106.584 66.208L119.624 117.516L130.451 114.764L134.954 132.482L124.127 135.234L128.411 152.09L108.725 157.094ZM85.5425 126.178L102.276 121.926L96.7412 100.147L85.5425 126.178Z" fill="#F8A08C"/>
<path d="M205.634 100.822C205.634 106.408 204.786 111.549 203.094 116.247C201.401 120.944 199.073 125.006 196.111 128.434C193.147 131.862 189.657 134.528 185.638 136.432C181.617 138.336 177.237 139.288 172.498 139.288C167.757 139.288 163.357 138.336 159.295 136.432C155.232 134.527 151.719 131.861 148.758 128.434C145.794 125.006 143.489 120.944 141.839 116.247C140.189 111.549 139.363 106.408 139.363 100.822C139.363 95.236 140.189 90.0942 141.839 85.3973C143.489 80.6998 145.794 76.6378 148.758 73.2099C151.719 69.7819 155.232 67.0965 159.295 65.1486C163.357 63.2028 167.757 62.2285 172.498 62.2285C177.237 62.2285 181.616 63.2028 185.638 65.1486C189.657 67.0965 193.147 69.7819 196.111 73.2099C199.073 76.6378 201.401 80.6998 203.094 85.3973C204.786 90.0942 205.634 95.236 205.634 100.822ZM185.194 100.822C185.194 94.8986 184.008 90.0942 181.639 86.4123C179.268 82.7312 176.222 80.8903 172.498 80.8903C168.605 80.8903 165.494 82.7312 163.168 86.4123C160.839 90.0942 159.676 94.8986 159.676 100.822C159.676 106.747 160.839 111.53 163.168 115.167C165.494 118.807 168.605 120.627 172.498 120.627C176.222 120.627 179.268 118.808 181.639 115.167C184.008 111.53 185.194 106.747 185.194 100.822Z" fill="#F8A08C"/>
<path d="M242.081 153.845L244.862 136.677L210.4 131.093L213.304 113.172L262.644 67.4082L276.304 69.621L267.838 121.879L278.866 123.665L275.943 141.712L264.915 139.925L262.133 157.094L242.081 153.845ZM233.124 116.255L250.167 119.017L253.761 96.8353L233.124 116.255Z" fill="#F8A08C"/>
<path d="M143.986 49.9983C142.536 49.9983 141.222 49.7147 140.042 49.1483C138.861 48.5818 137.849 47.829 137.004 46.8906C136.158 45.9529 135.503 44.8792 135.039 43.6717C134.574 42.4642 134.342 41.2284 134.342 39.9644C134.342 38.6451 134.587 37.3817 135.08 36.1735C135.572 34.966 136.251 33.8972 137.115 32.9678C137.979 32.0383 139.006 31.3 140.195 30.7515C141.384 30.2036 142.676 29.9297 144.069 29.9297C145.5 29.9297 146.805 30.2222 147.986 30.8074C149.166 31.3925 150.174 32.1591 151.01 33.1071C151.846 34.0552 152.496 35.133 152.961 36.3405C153.426 37.5487 153.658 38.7748 153.658 40.0202C153.658 41.3402 153.416 42.5981 152.934 43.7973C152.45 44.9958 151.782 46.055 150.927 46.9748C150.072 47.8945 149.05 48.6287 147.861 49.1765C146.671 49.7244 145.38 49.9983 143.986 49.9983ZM138.244 39.9637C138.244 40.8186 138.373 41.6459 138.634 42.4442C138.894 43.2432 139.27 43.9498 139.762 44.5625C140.254 45.1759 140.859 45.6679 141.574 46.0398C142.289 46.4117 143.103 46.5973 144.014 46.5973C144.942 46.5973 145.765 46.4069 146.48 46.026C147.196 45.6458 147.8 45.1387 148.292 44.5066C148.784 43.8753 149.156 43.1646 149.407 42.3745C149.658 41.5845 149.783 40.7813 149.783 39.963C149.783 39.1088 149.648 38.2814 149.379 37.4824C149.109 36.6834 148.728 35.9775 148.236 35.3641C147.744 34.7507 147.14 34.2636 146.425 33.9006C145.71 33.5384 144.906 33.3569 144.014 33.3569C143.085 33.3569 142.258 33.5474 141.533 33.9282C140.808 34.3091 140.205 34.8107 139.722 35.4331C139.238 36.0562 138.872 36.7621 138.62 37.5514C138.369 38.3429 138.244 39.146 138.244 39.9637Z" fill="#263238"/>
<path d="M162.996 50.1378C161.806 50.1378 160.738 49.9336 159.791 49.5244C158.843 49.1159 158.039 48.5625 157.379 47.8663C156.72 47.1694 156.213 46.3656 155.86 45.4548C155.507 44.5447 155.33 43.5869 155.33 42.5837C155.33 41.5618 155.507 40.5958 155.86 39.685C156.213 38.7749 156.72 37.971 157.379 37.2741C158.039 36.5772 158.843 36.0245 159.791 35.6154C160.738 35.2069 161.806 35.002 162.996 35.002C164.185 35.002 165.249 35.2069 166.188 35.6154C167.126 36.0245 167.925 36.5772 168.585 37.2741C169.245 37.971 169.751 38.7749 170.104 39.685C170.457 40.5958 170.634 41.5618 170.634 42.5837C170.634 43.5869 170.457 44.5447 170.104 45.4548C169.751 46.3656 169.249 47.1687 168.599 47.8663C167.949 48.5632 167.15 49.1166 166.202 49.5244C165.254 49.9329 164.185 50.1378 162.996 50.1378ZM159.177 42.5837C159.177 43.2343 159.275 43.8243 159.469 44.3535C159.665 44.8834 159.934 45.343 160.277 45.7335C160.621 46.1234 161.025 46.4256 161.49 46.6395C161.954 46.8534 162.456 46.9603 162.995 46.9603C163.534 46.9603 164.036 46.8534 164.5 46.6395C164.965 46.4263 165.369 46.1241 165.713 45.7335C166.056 45.343 166.326 44.8786 166.52 44.3397C166.716 43.8008 166.813 43.2067 166.813 42.5561C166.813 41.9247 166.715 41.3396 166.52 40.8C166.325 40.2611 166.056 39.7968 165.713 39.4062C165.368 39.0157 164.964 38.7142 164.5 38.5003C164.036 38.2864 163.534 38.1794 162.995 38.1794C162.456 38.1794 161.954 38.2912 161.49 38.5141C161.025 38.7369 160.621 39.044 160.277 39.4338C159.933 39.8244 159.664 40.2887 159.469 40.8276C159.274 41.3672 159.177 41.9523 159.177 42.5837Z" fill="#263238"/>
<path d="M181.893 50.1378C180.74 50.1378 179.737 49.8825 178.883 49.3712C178.028 48.8606 177.359 48.1685 176.876 47.295V55.7965H173.141V35.2531H176.402V37.7613C176.94 36.907 177.637 36.2329 178.492 35.7403C179.346 35.2483 180.332 35.002 181.446 35.002C182.431 35.002 183.342 35.2021 184.178 35.6016C185.014 36.0011 185.735 36.54 186.338 37.2182C186.942 37.8965 187.416 38.6955 187.76 39.6153C188.104 40.5351 188.276 41.5066 188.276 42.5285C188.276 43.5876 188.118 44.5819 187.802 45.5107C187.486 46.4401 187.044 47.2488 186.478 47.936C185.91 48.6239 185.237 49.1621 184.457 49.5527C183.677 49.9425 182.822 50.1378 181.893 50.1378ZM180.639 46.9603C181.196 46.9603 181.712 46.8396 182.186 46.5981C182.659 46.3566 183.064 46.0316 183.398 45.6224C183.732 45.214 183.992 44.7399 184.179 44.2003C184.365 43.6615 184.457 43.1046 184.457 42.5285C184.457 41.9151 184.355 41.3437 184.151 40.8145C183.946 40.2846 183.663 39.8251 183.301 39.4345C182.939 39.0447 182.511 38.7376 182.019 38.5147C181.526 38.2919 180.992 38.1801 180.417 38.1801C180.063 38.1801 179.701 38.2408 179.33 38.3616C178.958 38.4823 178.614 38.6541 178.298 38.8777C177.982 39.1006 177.699 39.3614 177.448 39.6581C177.198 39.9555 177.007 40.2811 176.877 40.6337V44.0623C177.212 44.8986 177.723 45.5907 178.41 46.1385C179.096 46.6864 179.84 46.9603 180.639 46.9603Z" fill="#263238"/>
<path d="M196.333 50.1378C195.106 50.1378 193.907 49.9425 192.737 49.5526C191.566 49.1628 190.563 48.6046 189.727 47.8801L191.12 45.5389C192.013 46.171 192.881 46.6491 193.726 46.9741C194.572 47.2998 195.413 47.4619 196.249 47.4619C196.992 47.4619 197.577 47.3226 198.005 47.0438C198.432 46.765 198.646 46.3655 198.646 45.8453C198.646 45.325 198.396 44.9441 197.893 44.7026C197.392 44.4611 196.574 44.1824 195.44 43.8664C194.493 43.6062 193.684 43.3551 193.015 43.1136C192.346 42.8721 191.807 42.5981 191.398 42.2911C190.989 41.9847 190.693 41.6314 190.506 41.2319C190.32 40.8324 190.228 40.3536 190.228 39.796C190.228 39.0529 190.372 38.3843 190.66 37.7888C190.948 37.1947 191.352 36.6876 191.872 36.2695C192.393 35.8513 193.002 35.5312 193.698 35.3083C194.395 35.0854 195.151 34.9736 195.97 34.9736C197.066 34.9736 198.092 35.1316 199.05 35.4477C200.007 35.7637 200.885 36.2743 201.684 36.9808L200.178 39.2385C199.435 38.681 198.715 38.2725 198.018 38.0124C197.321 37.7523 196.629 37.6225 195.941 37.6225C195.309 37.6225 194.779 37.753 194.352 38.0124C193.925 38.2725 193.711 38.6907 193.711 39.2668C193.711 39.5269 193.762 39.7408 193.864 39.9078C193.966 40.0748 194.129 40.2238 194.352 40.3536C194.575 40.484 194.868 40.6096 195.23 40.7296C195.592 40.8511 196.043 40.9759 196.582 41.1057C197.585 41.3658 198.444 41.6259 199.16 41.8861C199.875 42.1462 200.46 42.4436 200.916 42.7775C201.371 43.1122 201.706 43.4979 201.92 43.934C202.133 44.3707 202.24 44.8958 202.24 45.5092C202.24 46.9403 201.71 48.0691 200.651 48.8958C199.594 49.7245 198.154 50.1378 196.333 50.1378Z" fill="#263238"/>
<path d="M205.391 42.4166V29.873H209.126V42.4166H205.391ZM205.391 49.8589V45.6499H209.126V49.8589H205.391Z" fill="#263238"/>
<path d="M317.42 184.493C317.711 183.097 318.18 181.736 318.785 180.439C319.392 179.143 320.134 177.901 321.066 176.796C322 175.703 323.15 174.739 324.533 174.206C325.917 173.69 327.5 173.694 328.888 174.249C330.292 174.796 331.399 175.976 331.996 177.332C332.306 178.01 332.5 178.736 332.58 179.479C332.65 180.221 332.62 180.993 332.325 181.734C332.174 182.098 331.939 182.466 331.562 182.711C331.38 182.838 331.157 182.91 330.938 182.944C330.723 182.975 330.502 182.965 330.251 182.878C329.79 182.682 329.558 182.31 329.36 181.976C329.182 181.628 329.046 181.272 328.953 180.913C328.565 179.473 328.525 178.008 328.594 176.559C328.799 173.674 329.557 170.789 331.112 168.306C331.896 167.079 332.88 165.95 334.103 165.125C335.311 164.294 336.725 163.722 338.168 163.556C338.878 163.384 339.612 163.4 340.337 163.365C340.701 163.327 341.061 163.415 341.424 163.433C341.783 163.481 342.152 163.475 342.501 163.579C343.935 163.836 345.283 164.412 346.541 165.108C347.792 165.829 348.907 166.755 349.924 167.76C350.932 168.775 351.849 169.885 352.586 171.108C350.954 168.779 348.853 166.757 346.376 165.403C345.129 164.756 343.812 164.224 342.424 164.008C342.085 163.914 341.73 163.93 341.384 163.892C341.035 163.881 340.688 163.802 340.339 163.849C339.643 163.9 338.942 163.896 338.262 164.079C336.871 164.275 335.581 164.835 334.445 165.615C333.304 166.396 332.383 167.467 331.644 168.64C330.179 171.013 329.461 173.816 329.282 176.601C329.204 177.992 329.24 179.415 329.587 180.737C329.754 181.369 330.052 182.081 330.488 182.281C330.544 182.286 330.581 182.316 330.649 182.318C330.716 182.313 330.789 182.328 330.853 182.311C330.984 182.29 331.112 182.255 331.221 182.176C331.448 182.034 331.627 181.781 331.748 181.491C331.99 180.905 332.034 180.209 331.973 179.539C331.906 178.865 331.733 178.196 331.455 177.575C330.909 176.334 329.941 175.261 328.686 174.736C327.439 174.206 325.978 174.163 324.683 174.614C323.382 175.081 322.258 175.978 321.32 177.017C319.44 179.122 318.173 181.754 317.42 184.493Z" fill="#263238"/>
<path d="M14.6602 153.375C15.326 152.12 16.3051 151.034 17.4484 150.176C18.5904 149.317 19.9014 148.652 21.3125 148.325C22.7159 147.989 24.2236 147.984 25.6277 148.41C27.0325 148.83 28.298 149.654 29.3109 150.704C30.3307 151.752 31.0932 153.026 31.6169 154.381C32.131 155.738 32.4394 157.192 32.3304 158.679C32.2565 159.41 32.1082 160.2 31.5293 160.833C31.2422 161.144 30.7993 161.35 30.3666 161.357C29.9512 161.352 29.5586 161.291 29.1778 161.087C28.799 160.892 28.4953 160.553 28.3222 160.177C28.1462 159.801 28.0807 159.403 28.0627 159.018C28.0351 158.245 28.2021 157.511 28.4291 156.813C28.8921 155.414 29.6525 154.154 30.5412 153.012C31.4348 151.872 32.4863 150.856 33.6648 150.01C36.0025 148.313 38.9806 147.37 41.8855 147.75C43.3193 147.944 44.7421 148.358 45.9972 149.089C47.2633 149.796 48.3611 150.778 49.2561 151.9C50.1503 153.027 50.8472 154.293 51.384 155.612C51.9209 156.932 52.3169 158.31 52.5115 159.716C51.9319 156.952 50.7948 154.266 48.9835 152.123C48.0865 151.052 47.0053 150.133 45.7785 149.485C44.562 148.814 43.1972 148.453 41.8234 148.3C39.0634 147.999 36.2634 148.879 34.0367 150.527C31.8129 152.163 29.9933 154.446 29.0736 157.029C28.8569 157.673 28.7058 158.346 28.7258 158.995C28.741 159.638 28.9673 160.257 29.4841 160.517C29.7277 160.658 30.0582 160.712 30.3466 160.717C30.6261 160.709 30.8745 160.598 31.0739 160.392C31.4768 159.972 31.6493 159.284 31.7107 158.625C31.8191 157.277 31.5403 155.882 31.058 154.594C30.5695 153.302 29.8436 152.097 28.9052 151.089C27.9689 150.083 26.789 149.297 25.4835 148.87C24.1801 148.436 22.7511 148.4 21.3932 148.688C18.6767 149.266 16.1595 150.964 14.6602 153.375Z" fill="#263238"/>
<path d="M91.7366 96.7436C91.6586 93.9043 91.0563 91.0456 89.7349 88.5547C89.0732 87.321 88.1955 86.1811 87.0432 85.4173C85.893 84.6707 84.4647 84.3637 83.1268 84.5803C81.7833 84.7915 80.5876 85.6022 79.761 86.6765C79.3421 87.2134 79.0144 87.8212 78.7881 88.4602C78.5686 89.0964 78.4458 89.7822 78.541 90.4094C78.5887 90.7192 78.7025 91.007 78.8888 91.1995C78.9771 91.3023 79.0924 91.3665 79.2145 91.4189C79.2731 91.45 79.347 91.4527 79.4111 91.4741C79.4774 91.4879 79.5202 91.4679 79.576 91.4762C80.0459 91.3865 80.5068 90.7662 80.8187 90.1921C81.4722 88.9915 81.8461 87.6177 82.1021 86.248C82.5927 83.5012 82.5651 80.608 81.7088 77.9542C81.2714 76.6384 80.6324 75.3778 79.7106 74.3476C78.7936 73.3195 77.6744 72.4681 76.3703 71.9457C75.7541 71.6062 75.0724 71.4427 74.4086 71.2261C74.0809 71.0977 73.7248 71.0922 73.384 71.0184C73.0383 70.9735 72.6974 70.8728 72.3455 70.8831C70.9469 70.761 69.5407 70.9632 68.1752 71.2951C65.4462 72.0189 62.9236 73.4803 60.7832 75.3523C61.7906 74.3414 62.9457 73.4817 64.167 72.7365C65.3945 72.0037 66.6972 71.371 68.0841 70.9687C69.4717 70.5926 70.9186 70.3553 72.3718 70.4477C72.7368 70.4298 73.0921 70.5243 73.453 70.5637C73.809 70.6313 74.1809 70.632 74.5246 70.7562C75.2201 70.9639 75.937 71.1232 76.5849 71.4593C77.947 71.9644 79.1834 72.8572 80.1577 73.9522C81.1486 75.0452 81.8344 76.3769 82.3036 77.7555C83.2206 80.5369 83.2675 83.5205 82.7783 86.3709C82.4996 87.7936 82.1111 89.2068 81.3914 90.5129C81.2148 90.84 80.9967 91.1533 80.7421 91.4486C80.4696 91.726 80.1563 92.0316 79.6616 92.1124C79.3966 92.1365 79.1807 92.093 78.9785 92.0116C78.7743 91.9261 78.5749 91.8032 78.4286 91.6363C78.1215 91.3085 77.9801 90.8952 77.9214 90.506C77.811 89.7167 77.9663 88.9604 78.2112 88.2559C78.4658 87.5528 78.8281 86.8939 79.2904 86.3101C80.1936 85.1358 81.5508 84.2539 83.0447 84.058C84.5247 83.851 86.0634 84.225 87.284 85.0564C88.4998 85.9044 89.3865 87.1154 90.033 88.3995C90.674 89.6946 91.0977 91.0787 91.3778 92.4815C91.6566 93.885 91.787 95.3181 91.7366 96.7436Z" fill="#263238"/>
<path d="M244.101 132.736C241.322 132.149 238.401 132.068 235.671 132.772C234.317 133.128 233.004 133.715 231.992 134.657C230.998 135.601 230.366 136.919 230.264 138.27C230.156 139.626 230.665 140.978 231.517 142.032C231.941 142.565 232.456 143.025 233.024 143.394C233.591 143.756 234.23 144.036 234.862 144.09C235.175 144.115 235.481 144.072 235.712 143.936C235.832 143.875 235.922 143.777 236.001 143.671C236.045 143.621 236.065 143.55 236.101 143.493C236.13 143.432 236.12 143.385 236.142 143.334C236.164 142.855 235.668 142.263 235.183 141.826C234.168 140.911 232.919 140.226 231.648 139.658C229.091 138.54 226.271 137.892 223.49 138.105C222.109 138.223 220.734 138.55 219.517 139.206C218.303 139.857 217.214 140.747 216.402 141.894C215.928 142.414 215.61 143.038 215.245 143.633C215.044 143.922 214.955 144.266 214.804 144.581C214.679 144.907 214.502 145.215 214.431 145.559C213.986 146.891 213.854 148.305 213.858 149.71C213.925 152.532 214.758 155.326 216.079 157.845C215.331 156.63 214.764 155.306 214.325 153.944C213.899 152.58 213.587 151.165 213.52 149.722C213.479 148.285 213.585 146.823 214.014 145.431C214.082 145.072 214.256 144.748 214.379 144.407C214.528 144.076 214.616 143.714 214.817 143.409C215.181 142.782 215.503 142.122 215.981 141.57C216.791 140.363 217.947 139.37 219.239 138.677C220.533 137.969 221.988 137.613 223.438 137.478C226.357 137.236 229.269 137.886 231.926 139.027C233.245 139.63 234.528 140.337 235.63 141.342C235.907 141.59 236.161 141.875 236.389 142.192C236.595 142.521 236.819 142.897 236.782 143.398C236.744 143.661 236.651 143.861 236.525 144.039C236.394 144.217 236.227 144.382 236.031 144.486C235.641 144.708 235.206 144.749 234.813 144.715C234.02 144.638 233.321 144.311 232.693 143.908C232.069 143.496 231.512 142.991 231.052 142.405C230.121 141.253 229.58 139.727 229.738 138.229C229.882 136.742 230.605 135.332 231.697 134.339C232.805 133.355 234.19 132.776 235.59 132.447C236.999 132.126 238.443 132.036 239.873 132.091C241.304 132.147 242.727 132.354 244.101 132.736Z" fill="#263238"/>
<path d="M201.383 88.0935C200.911 86.4589 200.847 84.7105 201.113 83.022C201.377 81.3336 201.949 79.6728 202.884 78.2183C203.804 76.7624 205.088 75.5031 206.641 74.7006C208.19 73.892 209.955 73.5407 211.693 73.5939C213.435 73.6408 215.148 74.0921 216.724 74.811C218.294 75.5404 219.769 76.5257 220.911 77.8808C221.456 78.5633 221.981 79.3588 222.013 80.3579C222.027 80.8513 221.827 81.3785 221.473 81.7359C221.122 82.0712 220.739 82.3438 220.257 82.4838C219.782 82.6294 219.254 82.5935 218.802 82.421C218.348 82.2499 217.965 81.9691 217.633 81.6586C216.971 81.0279 216.503 80.2648 216.116 79.481C215.347 77.9043 214.943 76.1945 214.748 74.4785C214.558 72.7597 214.607 71.0147 214.906 69.3097C215.483 65.9093 217.236 62.6256 220.027 60.5225C221.41 59.4896 222.967 58.6533 224.648 58.2276C226.318 57.7715 228.075 57.6908 229.778 57.8984C231.484 58.1096 233.14 58.6043 234.706 59.2798C236.271 59.956 237.766 60.7992 239.115 61.8342C236.312 59.9381 233.09 58.5802 229.739 58.249C228.071 58.0792 226.37 58.1931 224.769 58.6643C223.158 59.1059 221.679 59.9402 220.367 60.96C219.07 61.9984 217.966 63.2756 217.159 64.7281C216.345 66.1771 215.814 67.7786 215.533 69.4194C214.996 72.6955 215.343 76.1848 216.726 79.1843C217.083 79.9219 217.52 80.6305 218.09 81.1777C218.649 81.7228 219.386 82.0802 220.077 81.8615C220.416 81.7731 220.75 81.5392 221.011 81.2922C221.255 81.0417 221.382 80.7174 221.378 80.3607C221.369 79.6362 220.933 78.8972 220.429 78.2755C219.383 77.0197 217.971 76.0572 216.472 75.3548C214.965 74.6558 213.327 74.2287 211.672 74.1535C210.019 74.0776 208.342 74.3957 206.859 75.1305C205.373 75.8578 204.116 77.0315 203.194 78.4211C201.353 81.2046 200.631 84.7767 201.383 88.0935Z" fill="#263238"/>
<path d="M12.3513 153.526C10.805 153.039 9.15793 153.898 8.67079 155.442C8.18296 156.99 9.04202 158.636 10.5883 159.124C12.1332 159.611 13.7789 158.753 14.266 157.207C14.7532 155.662 13.8962 154.013 12.3513 153.526ZM13.9258 157.098C13.498 158.457 12.0518 159.211 10.6953 158.783C9.33803 158.355 8.58455 156.909 9.01304 155.551C9.44084 154.194 10.8864 153.44 12.245 153.869C13.6002 154.296 14.3536 155.741 13.9258 157.098ZM12.3513 153.526C10.805 153.039 9.15793 153.898 8.67079 155.442C8.18296 156.99 9.04202 158.636 10.5883 159.124C12.1332 159.611 13.7789 158.753 14.266 157.207C14.7532 155.662 13.8962 154.013 12.3513 153.526ZM13.9258 157.098C13.498 158.457 12.0518 159.211 10.6953 158.783C9.33803 158.355 8.58455 156.909 9.01304 155.551C9.44084 154.194 10.8864 153.44 12.245 153.869C13.6002 154.296 14.3536 155.741 13.9258 157.098ZM12.3513 153.526C10.805 153.039 9.15793 153.898 8.67079 155.442C8.18296 156.99 9.04202 158.636 10.5883 159.124C12.1332 159.611 13.7789 158.753 14.266 157.207C14.7532 155.662 13.8962 154.013 12.3513 153.526ZM13.9258 157.098C13.498 158.457 12.0518 159.211 10.6953 158.783C9.33803 158.355 8.58455 156.909 9.01304 155.551C9.44084 154.194 10.8864 153.44 12.245 153.869C13.6002 154.296 14.3536 155.741 13.9258 157.098ZM13.329 150.426C10.0687 149.399 6.59735 151.211 5.57063 154.466C4.5446 157.723 6.35239 161.197 9.61057 162.223C12.866 163.248 16.3401 161.44 17.3662 158.182C18.3936 154.928 16.5851 151.451 13.329 150.426ZM14.7021 157.343C14.1397 159.127 12.2333 160.121 10.451 159.559C8.66873 158.997 7.67444 157.09 8.23679 155.306C8.79914 153.523 10.707 152.531 12.4893 153.092C14.2702 153.653 15.2638 155.56 14.7021 157.343ZM14.266 157.206C14.7532 155.661 13.8962 154.013 12.3513 153.526C10.805 153.038 9.15793 153.897 8.67079 155.442C8.18296 156.989 9.04202 158.635 10.5883 159.123C12.1332 159.61 13.7789 158.752 14.266 157.206ZM13.9258 157.098C13.498 158.457 12.0518 159.211 10.6953 158.783C9.33803 158.355 8.58455 156.909 9.01304 155.551C9.44084 154.194 10.8864 153.44 12.245 153.869C13.6002 154.296 14.3536 155.741 13.9258 157.098ZM12.3513 153.526C10.805 153.039 9.15793 153.898 8.67079 155.442C8.18296 156.99 9.04202 158.636 10.5883 159.124C12.1332 159.611 13.7789 158.753 14.266 157.207C14.7532 155.662 13.8962 154.013 12.3513 153.526ZM13.9258 157.098C13.498 158.457 12.0518 159.211 10.6953 158.783C9.33803 158.355 8.58455 156.909 9.01304 155.551C9.44084 154.194 10.8864 153.44 12.245 153.869C13.6002 154.296 14.3536 155.741 13.9258 157.098ZM12.3513 153.526C10.805 153.039 9.15793 153.898 8.67079 155.442C8.18296 156.99 9.04202 158.636 10.5883 159.124C12.1332 159.611 13.7789 158.753 14.266 157.207C14.7532 155.662 13.8962 154.013 12.3513 153.526ZM13.9258 157.098C13.498 158.457 12.0518 159.211 10.6953 158.783C9.33803 158.355 8.58455 156.909 9.01304 155.551C9.44084 154.194 10.8864 153.44 12.245 153.869C13.6002 154.296 14.3536 155.741 13.9258 157.098Z" fill="#455A64"/>
<path d="M10.822 162.335L8.55401 161.621L8.17383 163.266L10.1907 163.902L10.822 162.335Z" fill="#455A64"/>
<path d="M6.74703 160.211L5.64856 158.102L4.2168 158.996L5.19315 160.872L6.74703 160.211Z" fill="#455A64"/>
<path d="M5.36639 155.827L6.08123 153.559L4.43626 153.179L3.80078 155.196L5.36639 155.827Z" fill="#455A64"/>
<path d="M7.49109 151.752L9.59973 150.653L8.7055 149.221L6.83008 150.198L7.49109 151.752Z" fill="#455A64"/>
<path d="M11.875 150.371L14.143 151.085L14.5239 149.441L12.5063 148.806L11.875 150.371Z" fill="#455A64"/>
<path d="M15.9512 152.495L17.0496 154.605L18.4821 153.71L17.5051 151.835L15.9512 152.495Z" fill="#455A64"/>
<path d="M17.3301 156.879L16.6152 159.147L18.2602 159.528L18.8957 157.51L17.3301 156.879Z" fill="#455A64"/>
<path d="M15.207 160.955L13.0977 162.054L13.9919 163.486L15.868 162.509L15.207 160.955Z" fill="#455A64"/>
<path d="M242.84 59.7549C241.487 59.3285 240.046 60.0799 239.619 61.4316C239.193 62.7861 239.944 64.2261 241.298 64.6525C242.649 65.0789 244.089 64.3282 244.516 62.9751C244.942 61.6234 244.192 60.1806 242.84 59.7549ZM244.218 62.8806C243.844 64.0695 242.579 64.7284 241.391 64.3544C240.203 63.9805 239.544 62.715 239.918 61.5261C240.292 60.3386 241.558 59.6797 242.747 60.0537C243.933 60.4277 244.593 61.6931 244.218 62.8806ZM242.84 59.7549C241.487 59.3285 240.046 60.0799 239.619 61.4316C239.193 62.7861 239.944 64.2261 241.298 64.6525C242.649 65.0789 244.089 64.3282 244.516 62.9751C244.942 61.6234 244.192 60.1806 242.84 59.7549ZM244.218 62.8806C243.844 64.0695 242.579 64.7284 241.391 64.3544C240.203 63.9805 239.544 62.715 239.918 61.5261C240.292 60.3386 241.558 59.6797 242.747 60.0537C243.933 60.4277 244.593 61.6931 244.218 62.8806ZM242.84 59.7549C241.487 59.3285 240.046 60.0799 239.619 61.4316C239.193 62.7861 239.944 64.2261 241.298 64.6525C242.649 65.0789 244.089 64.3282 244.516 62.9751C244.942 61.6234 244.192 60.1806 242.84 59.7549ZM244.218 62.8806C243.844 64.0695 242.579 64.7284 241.391 64.3544C240.203 63.9805 239.544 62.715 239.918 61.5261C240.292 60.3386 241.558 59.6797 242.747 60.0537C243.933 60.4277 244.593 61.6931 244.218 62.8806ZM243.697 57.0425C240.844 56.1441 237.806 57.7291 236.908 60.5774C236.01 63.4271 237.592 66.4672 240.443 67.3649C243.292 68.2626 246.332 66.6797 247.229 63.8294C248.128 60.981 246.545 57.9395 243.697 57.0425ZM244.898 63.0945C244.406 64.6553 242.738 65.5254 241.177 65.0334C239.617 64.5414 238.748 62.873 239.24 61.3122C239.732 59.7515 241.402 58.8828 242.961 59.3747C244.52 59.866 245.389 61.5344 244.898 63.0945ZM244.516 62.9751C244.943 61.6234 244.193 60.1806 242.841 59.7549C241.488 59.3285 240.047 60.0799 239.62 61.4316C239.194 62.7861 239.945 64.2261 241.298 64.6525C242.65 65.0783 244.09 64.3282 244.516 62.9751ZM244.218 62.8806C243.844 64.0695 242.579 64.7284 241.391 64.3544C240.203 63.9805 239.544 62.715 239.918 61.5261C240.292 60.3386 241.558 59.6797 242.747 60.0537C243.933 60.4277 244.593 61.6931 244.218 62.8806ZM242.84 59.7549C241.487 59.3285 240.046 60.0799 239.619 61.4316C239.193 62.7861 239.944 64.2261 241.298 64.6525C242.649 65.0789 244.089 64.3282 244.516 62.9751C244.942 61.6234 244.192 60.1806 242.84 59.7549ZM244.218 62.8806C243.844 64.0695 242.579 64.7284 241.391 64.3544C240.203 63.9805 239.544 62.715 239.918 61.5261C240.292 60.3386 241.558 59.6797 242.747 60.0537C243.933 60.4277 244.593 61.6931 244.218 62.8806ZM242.84 59.7549C241.487 59.3285 240.046 60.0799 239.619 61.4316C239.193 62.7861 239.944 64.2261 241.298 64.6525C242.649 65.0789 244.089 64.3282 244.516 62.9751C244.942 61.6234 244.192 60.1806 242.84 59.7549ZM244.218 62.8806C243.844 64.0695 242.579 64.7284 241.391 64.3544C240.203 63.9805 239.544 62.715 239.918 61.5261C240.292 60.3386 241.558 59.6797 242.747 60.0537C243.933 60.4277 244.593 61.6931 244.218 62.8806Z" fill="#263238"/>
<path d="M241.501 67.463L239.516 66.8379L239.184 68.2772L240.949 68.8334L241.501 67.463Z" fill="#263238"/>
<path d="M237.935 65.6039L236.974 63.7588L235.721 64.5406L236.576 66.1821L237.935 65.6039Z" fill="#263238"/>
<path d="M236.727 61.7672L237.353 59.7828L235.914 59.4502L235.357 61.2152L236.727 61.7672Z" fill="#263238"/>
<path d="M238.586 58.2005L240.432 57.2394L239.649 55.9863L238.008 56.8412L238.586 58.2005Z" fill="#263238"/>
<path d="M242.422 56.9934L244.406 57.6185L244.74 56.1792L242.975 55.623L242.422 56.9934Z" fill="#263238"/>
<path d="M245.988 58.8526L246.949 60.6984L248.203 59.9159L247.348 58.2744L245.988 58.8526Z" fill="#263238"/>
<path d="M247.197 62.6885L246.572 64.6729L248.012 65.0062L248.568 63.2412L247.197 62.6885Z" fill="#263238"/>
<path d="M245.337 66.2549L243.492 67.2161L244.274 68.4691L245.915 67.6142L245.337 66.2549Z" fill="#263238"/>
<path d="M216.472 158.331C215.119 157.905 213.677 158.656 213.251 160.008C212.825 161.362 213.576 162.802 214.929 163.229C216.281 163.655 217.721 162.904 218.147 161.551C218.573 160.2 217.824 158.757 216.472 158.331ZM217.849 161.457C217.474 162.646 216.21 163.305 215.022 162.931C213.835 162.557 213.176 161.291 213.55 160.102C213.924 158.915 215.189 158.256 216.378 158.63C217.564 159.004 218.224 160.269 217.849 161.457ZM216.472 158.331C215.119 157.905 213.677 158.656 213.251 160.008C212.825 161.362 213.576 162.802 214.929 163.229C216.281 163.655 217.721 162.904 218.147 161.551C218.573 160.2 217.824 158.757 216.472 158.331ZM217.849 161.457C217.474 162.646 216.21 163.305 215.022 162.931C213.835 162.557 213.176 161.291 213.55 160.102C213.924 158.915 215.189 158.256 216.378 158.63C217.564 159.004 218.224 160.269 217.849 161.457ZM216.472 158.331C215.119 157.905 213.677 158.656 213.251 160.008C212.825 161.362 213.576 162.802 214.929 163.229C216.281 163.655 217.721 162.904 218.147 161.551C218.573 160.2 217.824 158.757 216.472 158.331ZM217.849 161.457C217.474 162.646 216.21 163.305 215.022 162.931C213.835 162.557 213.176 161.291 213.55 160.102C213.924 158.915 215.189 158.256 216.378 158.63C217.564 159.004 218.224 160.269 217.849 161.457ZM217.327 155.619C214.475 154.72 211.437 156.305 210.539 159.154C209.641 162.004 211.222 165.043 214.074 165.941C216.923 166.839 219.963 165.256 220.86 162.406C221.759 159.557 220.176 156.516 217.327 155.619ZM218.529 161.671C218.037 163.231 216.368 164.102 214.808 163.61C213.249 163.118 212.379 161.449 212.871 159.888C213.363 158.328 215.033 157.459 216.592 157.951C218.151 158.442 219.02 160.111 218.529 161.671ZM218.147 161.551C218.573 160.2 217.824 158.757 216.472 158.331C215.119 157.905 213.677 158.656 213.251 160.008C212.825 161.362 213.576 162.802 214.929 163.229C216.281 163.655 217.721 162.904 218.147 161.551ZM217.849 161.457C217.474 162.646 216.21 163.305 215.022 162.931C213.835 162.557 213.176 161.291 213.55 160.102C213.924 158.915 215.189 158.256 216.378 158.63C217.564 159.004 218.224 160.269 217.849 161.457ZM216.472 158.331C215.119 157.905 213.677 158.656 213.251 160.008C212.825 161.362 213.576 162.802 214.929 163.229C216.281 163.655 217.721 162.904 218.147 161.551C218.573 160.2 217.824 158.757 216.472 158.331ZM217.849 161.457C217.474 162.646 216.21 163.305 215.022 162.931C213.835 162.557 213.176 161.291 213.55 160.102C213.924 158.915 215.189 158.256 216.378 158.63C217.564 159.004 218.224 160.269 217.849 161.457ZM216.472 158.331C215.119 157.905 213.677 158.656 213.251 160.008C212.825 161.362 213.576 162.802 214.929 163.229C216.281 163.655 217.721 162.904 218.147 161.551C218.573 160.2 217.824 158.757 216.472 158.331ZM217.849 161.457C217.474 162.646 216.21 163.305 215.022 162.931C213.835 162.557 213.176 161.291 213.55 160.102C213.924 158.915 215.189 158.256 216.378 158.63C217.564 159.004 218.224 160.269 217.849 161.457Z" fill="#263238"/>
<path d="M215.131 166.039L213.147 165.414L212.814 166.853L214.579 167.41L215.131 166.039Z" fill="#263238"/>
<path d="M211.566 164.18L210.605 162.335L209.352 163.117L210.206 164.758L211.566 164.18Z" fill="#263238"/>
<path d="M210.358 160.344L210.984 158.36L209.544 158.027L208.988 159.792L210.358 160.344Z" fill="#263238"/>
<path d="M212.217 156.778L214.063 155.817L213.28 154.563L211.639 155.418L212.217 156.778Z" fill="#263238"/>
<path d="M216.053 155.57L218.037 156.196L218.37 154.756L216.605 154.2L216.053 155.57Z" fill="#263238"/>
<path d="M219.619 157.429L220.58 159.275L221.833 158.492L220.978 156.851L219.619 157.429Z" fill="#263238"/>
<path d="M220.828 161.265L220.203 163.249L221.642 163.582L222.199 161.817L220.828 161.265Z" fill="#263238"/>
<path d="M218.968 164.832L217.123 165.793L217.905 167.046L219.546 166.191L218.968 164.832Z" fill="#263238"/>
<path d="M65.5643 80.7255C66.6283 76.3592 63.9504 71.9563 59.5841 70.8924C55.2164 69.8284 50.8128 72.5063 49.7488 76.8726C48.6848 81.2403 51.3627 85.6439 55.7304 86.7079C60.0974 87.7711 64.5003 85.0932 65.5643 80.7255ZM61.3498 79.6988C60.8523 81.7398 58.7975 82.9901 56.7578 82.4926C54.7168 81.9952 53.4665 79.9403 53.964 77.8993C54.4608 75.8597 56.5163 74.6101 58.5573 75.1076C60.5963 75.6044 61.8466 77.6592 61.3498 79.6988Z" fill="#263238"/>
<path d="M57.3305 86.7489L54.2896 86.0078L53.9336 88.2013L56.6377 88.8603L57.3305 86.7489Z" fill="#263238"/>
<path d="M51.7926 84.3141L50.1663 81.6396L48.3633 82.9389L49.8095 85.3173L51.7926 84.3141Z" fill="#263238"/>
<path d="M49.5977 78.6762L50.3388 75.636L48.1453 75.2793L47.4863 77.9841L49.5977 78.6762Z" fill="#263238"/>
<path d="M52.0326 73.1383L54.7063 71.512L53.4077 69.709L51.0293 71.1559L52.0326 73.1383Z" fill="#263238"/>
<path d="M57.6699 70.9444L60.7108 71.6855L61.0675 69.492L58.3627 68.833L57.6699 70.9444Z" fill="#263238"/>
<path d="M63.207 73.3783L64.8334 76.0527L66.6363 74.7534L65.1901 72.375L63.207 73.3783Z" fill="#263238"/>
<path d="M65.4032 79.0166L64.6621 82.0574L66.8556 82.4135L67.5146 79.7087L65.4032 79.0166Z" fill="#263238"/>
<path d="M62.9687 84.5547L60.2949 86.181L61.5942 87.984L63.9726 86.5371L62.9687 84.5547Z" fill="#263238"/>
<path d="M55.1228 80.2924L57.5633 81.6289L59.9403 80.1813L59.8762 77.4013L57.437 76.0654L55.0586 77.5103L55.1228 80.2924ZM57.7082 77.9898C58.1829 78.1051 58.472 78.5812 58.3561 79.0559C58.2409 79.5285 57.7648 79.8197 57.2901 79.7038C56.8174 79.5886 56.5269 79.1104 56.6421 78.6378C56.7581 78.1637 57.2355 77.8746 57.7082 77.9898Z" fill="#263238"/>
<path d="M249.498 164.867C247.642 162.041 246.598 158.862 246.598 155.502C246.598 143.637 259.628 134.017 275.69 134.017C291.753 134.017 304.77 143.637 304.77 155.502C304.77 167.366 291.753 176.987 275.69 176.987C267.902 176.987 260.841 174.731 255.624 171.043L245.604 173.591L249.498 164.867Z" fill="white"/>
<path d="M249.498 164.867C247.746 162.258 246.649 159.177 246.533 156.012C246.446 152.854 247.225 149.658 248.847 146.925C250.432 144.172 252.692 141.851 255.245 139.984C257.801 138.107 260.679 136.689 263.683 135.692C266.687 134.688 269.817 134.086 272.975 133.833C276.137 133.602 279.321 133.798 282.446 134.315C283.222 134.474 284.01 134.581 284.777 134.784L287.074 135.402L289.319 136.195C290.065 136.464 290.775 136.828 291.505 137.14C294.37 138.503 297.056 140.288 299.315 142.543C301.568 144.788 303.386 147.531 304.344 150.601C305.301 153.66 305.37 157.017 304.439 160.093C303.534 163.18 301.759 165.951 299.536 168.226C297.308 170.51 294.643 172.328 291.792 173.722C288.943 175.132 285.872 176.05 282.758 176.616C279.639 177.152 276.456 177.381 273.297 177.158C270.139 176.958 267.001 176.382 263.996 175.389C260.994 174.401 258.105 173.02 255.534 171.171L255.663 171.195L245.623 173.664L245.471 173.702L245.535 173.56L249.498 164.867ZM249.498 164.867L245.672 173.62L245.585 173.516L255.585 170.889L255.654 170.871L255.715 170.913C260.875 174.475 267.098 176.329 273.327 176.662C276.448 176.855 279.588 176.6 282.654 176.045C285.718 175.476 288.736 174.566 291.526 173.174C294.318 171.799 296.918 170.011 299.079 167.783C301.235 165.562 302.939 162.876 303.801 159.908C304.689 156.95 304.604 153.737 303.687 150.803C302.776 147.855 301.033 145.198 298.848 143.008C296.658 140.81 294.039 139.055 291.234 137.71C290.519 137.403 289.825 137.043 289.093 136.778L286.891 135.992L284.634 135.378C283.882 135.175 283.106 135.07 282.343 134.91C279.269 134.389 276.133 134.2 273.015 134.4C269.901 134.621 266.808 135.187 263.837 136.151C260.866 137.108 258.016 138.481 255.482 140.309C252.948 142.126 250.715 144.396 249.104 147.075C247.465 149.741 246.647 152.876 246.683 156.007C246.746 159.145 247.787 162.231 249.498 164.867Z" fill="#263238"/>
<path d="M260.725 159.02V160.617H254.215V151.241H260.606V152.839H256.038V155.097H259.986V156.576H256.038V159.019L260.725 159.02Z" fill="#263238"/>
<path d="M262.152 160.617V151.241H266.299C266.731 151.241 267.129 151.332 267.494 151.512C267.859 151.693 268.173 151.931 268.438 152.225C268.702 152.52 268.909 152.855 269.058 153.229C269.208 153.603 269.282 153.98 269.282 154.358C269.282 154.965 269.13 155.518 268.827 156.015C268.524 156.513 268.112 156.872 267.592 157.091L269.732 160.617H267.685L265.771 157.474H263.975V160.617H262.152ZM263.975 155.876H266.259C266.426 155.876 266.583 155.837 266.728 155.757C266.873 155.678 266.998 155.57 267.104 155.434C267.21 155.298 267.294 155.137 267.355 154.952C267.417 154.767 267.448 154.569 267.448 154.358C267.448 154.138 267.412 153.936 267.343 153.751C267.271 153.566 267.178 153.406 267.058 153.269C266.94 153.133 266.803 153.027 266.649 152.952C266.495 152.877 266.339 152.839 266.18 152.839H263.975V155.876H263.975Z" fill="#263238"/>
<path d="M270.932 160.617V151.241H275.079C275.51 151.241 275.908 151.332 276.273 151.512C276.638 151.693 276.953 151.931 277.217 152.225C277.481 152.52 277.688 152.855 277.837 153.229C277.987 153.603 278.061 153.98 278.061 154.358C278.061 154.965 277.91 155.518 277.606 156.015C277.303 156.513 276.891 156.872 276.372 157.091L278.511 160.617H276.463L274.549 157.474H272.753V160.617H270.932ZM272.755 155.876H275.039C275.205 155.876 275.362 155.837 275.507 155.757C275.653 155.678 275.778 155.57 275.884 155.434C275.989 155.298 276.073 155.137 276.134 154.952C276.196 154.767 276.227 154.569 276.227 154.358C276.227 154.138 276.192 153.936 276.122 153.751C276.051 153.566 275.957 153.406 275.838 153.269C275.719 153.133 275.582 153.027 275.428 152.952C275.274 152.877 275.118 152.839 274.959 152.839H272.755V155.876Z" fill="#263238"/>
<path d="M283.715 160.683C283.028 160.683 282.406 160.549 281.846 160.28C281.287 160.012 280.807 159.655 280.407 159.211C280.006 158.766 279.696 158.258 279.476 157.686C279.256 157.114 279.146 156.528 279.146 155.93C279.146 155.305 279.263 154.707 279.496 154.134C279.73 153.562 280.051 153.055 280.46 152.615C280.869 152.175 281.356 151.825 281.919 151.566C282.482 151.306 283.094 151.176 283.754 151.176C284.432 151.176 285.05 151.314 285.61 151.592C286.169 151.869 286.647 152.232 287.042 152.681C287.438 153.13 287.747 153.641 287.967 154.213C288.187 154.786 288.297 155.366 288.297 155.956C288.297 156.581 288.182 157.177 287.954 157.745C287.725 158.313 287.407 158.815 287.003 159.251C286.598 159.687 286.113 160.035 285.55 160.294C284.987 160.553 284.375 160.683 283.715 160.683ZM280.994 155.929C280.994 156.334 281.056 156.726 281.179 157.104C281.303 157.483 281.481 157.818 281.714 158.108C281.947 158.399 282.234 158.632 282.572 158.808C282.911 158.984 283.296 159.072 283.728 159.072C284.168 159.072 284.557 158.982 284.896 158.802C285.235 158.622 285.521 158.381 285.755 158.082C285.988 157.783 286.164 157.446 286.283 157.072C286.402 156.698 286.461 156.317 286.461 155.93C286.461 155.526 286.397 155.134 286.27 154.755C286.142 154.377 285.962 154.041 285.729 153.751C285.495 153.46 285.21 153.229 284.871 153.058C284.532 152.886 284.151 152.8 283.729 152.8C283.288 152.8 282.897 152.89 282.554 153.071C282.21 153.252 281.924 153.489 281.695 153.784C281.466 154.079 281.292 154.414 281.174 154.788C281.054 155.161 280.994 155.542 280.994 155.929Z" fill="#263238"/>
<path d="M289.697 160.617V151.241H293.844C294.275 151.241 294.674 151.332 295.039 151.512C295.404 151.693 295.718 151.931 295.982 152.225C296.247 152.52 296.454 152.855 296.603 153.229C296.753 153.603 296.827 153.98 296.827 154.358C296.827 154.965 296.675 155.518 296.372 156.015C296.069 156.513 295.657 156.872 295.137 157.091L297.277 160.617H295.23L293.316 157.474H291.52V160.617H289.697ZM291.52 155.876H293.804C293.971 155.876 294.128 155.837 294.273 155.757C294.418 155.678 294.544 155.57 294.649 155.434C294.755 155.298 294.838 155.137 294.9 154.952C294.962 154.767 294.993 154.569 294.993 154.358C294.993 154.138 294.957 153.936 294.887 153.751C294.816 153.566 294.723 153.406 294.603 153.269C294.484 153.133 294.348 153.027 294.194 152.952C294.039 152.877 293.883 152.839 293.725 152.839H291.52V155.876H291.52Z" fill="#263238"/>
</g>
<defs>
<clipPath id="clip0_9462_161474">
<rect width="345" height="345" fill="white"/>
</clipPath>
</defs>
</svg>
